<?xml version="1.0" standalone="no"?><!DOCTYPE svg PUBLIC "-//W3C//DTD SVG 1.1//EN" "http://www.w3.org/Graphics/SVG/1.1/DTD/svg11.dtd"><svg t="1768583529790" class="icon" viewBox="0 0 1664 1024" version="1.1" xmlns="http://www.w3.org/2000/svg" p-id="7366" xmlns:xlink="http://www.w3.org/1999/xlink" width="208" height="128"><path d="M1023.616 781.184c-65.28 4.416-59.072-29.312-20.16-78.4C1091.84 588.8 1255.68 433.728 1263.104 320.448 1273.28 173.44 1120.32 128 962.816 128c-109.504 2.688-222.912 32-300.288 58.752-266.048 90.816-432.896 233.408-538.816 393.856C14.208 739.2 48.192 891.648 284.992 896c178.688-7.04 299.264-55.168 420.864-115.712 0.896 0-337.92 93.504-463.36 24.96-13.952-7.168-27.52-16.96-31.296-44.48 0-56.192 95.936-114.944 152-133.504V531.008c113.28 38.4 246.848 27.648 361.216-54.4 3.776 9.856 7.36 22.272 6.592 35.712h19.328c4.544-38.4-22.144-75.712-66.368-78.4 12.8 9.792 22.144 17.792 26.688 24.96l-1.728 1.6-0.896 0.896c-147.328 99.84-290.304 53.504-303.872 50.752L486.144 434.56l-22.912-56.192c163.072-55.104 297.6-95.488 521.344-133.504l-50.048-39.04 25.792-15.04c132.672 35.648 222.016 62.208 217.344 130.048a133.12 133.12 0 0 1-13.888 39.232c-39.552 75.712-155.648 197.76-202.688 250.496-30.272 34.752-60.8 66.944-81.984 98.944-23.936 32.96-35.968 63.296-36.864 90.816 4.48 223.68 687.232-105.152 821.76-191.744-196.224 80.832-409.152 158.464-640.384 172.672zM1152 256c4.288 17.28 6.4 38.72 6.4 64a315.968 315.968 0 0 0-6.4-64z" fill="#FE7500" p-id="7367"></path></svg>