<?xml version="1.0" standalone="no"?><!DOCTYPE svg PUBLIC "-//W3C//DTD SVG 1.1//EN" "http://www.w3.org/Graphics/SVG/1.1/DTD/svg11.dtd"><svg t="1768583745722" class="icon" viewBox="0 0 1024 1024" version="1.1" xmlns="http://www.w3.org/2000/svg" p-id="12017" xmlns:xlink="http://www.w3.org/1999/xlink" width="128" height="128"><path d="M512 512m-448 0a448 448 0 1 0 896 0 448 448 0 1 0-896 0Z" fill="#FFFFFF" p-id="12018"></path><path d="M688.908 100.284c159.448 68.603 271.092 227.121 271.092 411.716 0 247.423-200.577 448-448 448-247.424 0-448-200.577-448-448 0-13.671 0.612-27.2 1.81-40.558l0.01 0.006c19.35 203.43 190.683 362.552 399.18 362.552 221.466 0 401-179.534 401-401 0-137.31-69.013-258.5-174.244-330.777z" fill="#EBEBEB" p-id="12019"></path><path d="M627.951 79.264c219.71 58.872 357.302 271.235 328.32 490.806-24.802-12.82-51.35-23.186-79.421-30.708-210.453-56.39-426.772 68.501-483.162 278.954-10.945 40.848-15.061 81.917-13.04 122C151.002 870.049 16.614 629.861 79.264 396.05 143.303 157.056 388.958 15.227 627.951 79.264z" fill="#7f8fea" p-id="12020" data-spm-anchor-id="a313x.search_index.0.i17.46b93a81FKXQdT" class="selected"></path><path d="M425.215041 364.512663m-156.861616 94.251967a183 183 0 1 0 313.723232-188.503935 183 183 0 1 0-313.723232 188.503935Z" fill="#7f8fea" p-id="12021" data-spm-anchor-id="a313x.search_index.0.i18.46b93a81FKXQdT" class="selected"></path><path d="M273.565946 417.272559c44.800587 74.560698 141.561649 98.68594 216.122347 53.885353s98.68594-141.561649 53.885353-216.122347c-23.243153-38.683103-60.471663-63.790104-101.330526-72.740667C498.163922 187.565349 550.928699 218.421788 582.076657 270.260695c52.053868 86.632185 24.022536 199.059716-62.609649 251.113584S320.407293 545.396815 268.353425 458.76463C236.505015 405.759976 234.636002 343.098478 257.82554 290.516567 245.40193 331.602633 249.717623 377.582284 273.566461 417.273416z" fill="#E5E5E5" p-id="12022"></path><path d="M330.963073 207.651047c86.632185-52.053868 199.059716-24.022536 251.113584 62.609648s24.022536 199.059716-62.609649 251.113584S320.407293 545.396815 268.353425 458.76463 244.330888 259.704915 330.963073 207.651047z m12.360914 20.572015C268.053554 273.4501 243.698401 371.133284 288.92544 446.403717s142.910223 99.625585 218.180654 54.398547 99.625585-142.910223 54.398547-218.180655S418.594419 182.996023 343.323987 228.223062z" fill="#363636" p-id="12023"></path><path d="M380.960904 287.599516c-14.400411 8.65264-23.983606 19.730653-28.296648 33.52187-4.930202 14.162045-3.356814 28.896211 4.308723 44.449716l23.657818-14.215051c-4.492312-9.340403-5.567723-17.653976-3.226231-24.940718 2.135772-7.163133 7.482725-13.175827 16.122972-18.367411 8.434526-5.067975 15.924333-7.048377 22.46942-5.941206 6.133647 1.354389 11.404686 5.467022 15.731007 12.667227s5.400845 14.11435 3.305686 20.413105c-2.300879 6.422364-7.771441 12.229338-16.411688 17.420921l-10.286008 6.180457 10.877605 18.103373 10.286007-6.180456c9.463127-5.68602 17.775815-8.160859 25.185281-7.013076 7.285857 0.942064 13.668493 5.506749 18.736468 13.941276 4.202711 6.994485 5.195125 14.237959 3.306572 21.812533-2.258496 8.356841-8.057502 15.481132-17.314909 21.043543-8.434526 5.067975-16.706601 6.678434-24.692615 5.0371-8.850393-1.681948-16.180404-7.357345-22.277865-16.573255L387.961801 423.668952c11.123052 15.715957 24.546983 25.009551 40.024574 27.46934 13.954554 2.254955 28.646337-1.252911 43.869628-10.399987 16.046172-9.641513 26.28714-21.954732 30.846515-36.733937 4.271543-14.326267 2.328213-28.278165-5.82999-41.855695-5.191584-8.640246-11.986545-14.357142-20.261276-16.944967-7.739681-2.629323-16.87702-2.458904-27.124184 0.058318 13.038054-15.113846 14.839185-30.755659 5.197672-46.801831-7.663767-12.754649-18.122849-19.909816-31.295135-21.794828-13.378007-1.761403-27.616851 2.034293-42.428701 10.934151z" fill="#363636" p-id="12024"></path><path d="M352 299c74.393-54.05 138.802-91.745 119-119-19.802-27.256-106.243-18.11-180.636 35.94-74.394 54.05-111.166 138.804-91.364 166.06 19.802 27.255 78.606-28.95 153-83z" fill="#FFFFFF" opacity=".2" p-id="12025"></path><path d="M512.216 64.314c247.423 0 448 200.576 448 448s-200.577 448-448 448c-247.424 0-448-200.576-448-448s200.576-448 448-448z m0 40c-225.332 0-408 182.668-408 408s182.668 408 408 408 408-182.668 408-408-182.668-408-408-408z" fill="#363636" p-id="12026"></path></svg>